<?xml version="1.0" encoding="UTF-8" standalone="no"?>
<!-- Created with Inkscape (http://www.inkscape.org/) -->

<svg
   width="800px"
   height="150px"
   viewBox="0 0 800 150"
   id="SVGRoot"
   version="1.1"
   enable-background="new"
   inkscape:version="1.3 (0e150ed6c4, 2023-07-21)"
   sodipodi:docname="rating-2.svg"
   xmlns:inkscape="http://www.inkscape.org/namespaces/inkscape"
   xmlns:sodipodi="http://sodipodi.sourceforge.net/DTD/sodipodi-0.dtd"
   xmlns:xlink="http://www.w3.org/1999/xlink"
   xmlns="http://www.w3.org/2000/svg"
   xmlns:svg="http://www.w3.org/2000/svg">
  <defs
     id="defs4787">
    <linearGradient
       id="linearGradient747"
       inkscape:collect="always">
      <stop
         style="stop-color:#e21b1b;stop-opacity:1;"
         offset="0.40591395"
         id="stop747" />
      <stop
         style="stop-color:#212529;stop-opacity:1;"
         offset="0.40591395"
         id="stop748" />
    </linearGradient>
    <clipPath
       clipPathUnits="userSpaceOnUse"
       id="patternClipPath">
      <rect
         y="0"
         x="0"
         height="150"
         width="800"
         id="clipPathRect"
         style="color:#000000;display:inline;overflow:visible;visibility:visible;opacity:1;fill:#ffff00;fill-opacity:1;fill-rule:nonzero;stroke:none;stroke-width:20;stroke-linecap:square;stroke-linejoin:miter;stroke-miterlimit:4;stroke-dasharray:none;stroke-dashoffset:1.09889996;stroke-opacity:1;marker:none;enable-background:accumulate" />
    </clipPath>
    <marker
       inkscape:stockid="Arrow2Mend"
       orient="auto"
       refY="0.0"
       refX="0.0"
       id="Arrow2Mend"
       style="overflow:visible;"
       inkscape:isstock="true">
      <path
         id="path19572"
         style="fill-rule:evenodd;stroke-width:0.625;stroke-linejoin:round;stroke:#000000;stroke-opacity:1;fill:#000000;fill-opacity:1"
         d="M 8.7185878,4.0337352 L -2.2072895,0.016013256 L 8.7185884,-4.0017078 C 6.9730900,-1.6296469 6.9831476,1.6157441 8.7185878,4.0337352 z "
         transform="scale(0.6) rotate(180) translate(0,0)" />
    </marker>
    <linearGradient
       inkscape:collect="always"
       xlink:href="#linearGradient747"
       id="linearGradient748"
       x1="414.984"
       y1="452.676"
       x2="512"
       y2="452.676"
       gradientUnits="userSpaceOnUse" />
  </defs>
  <sodipodi:namedview
     id="base"
     pagecolor="#ffffff"
     bordercolor="#666666"
     borderopacity="1.0"
     inkscape:pageopacity="0"
     inkscape:pageshadow="2"
     inkscape:zoom="1.4142136"
     inkscape:cx="426.73893"
     inkscape:cy="208.24294"
     inkscape:document-units="px"
     inkscape:current-layer="SVGRoot"
     showgrid="false"
     inkscape:pagecheckerboard="true"
     inkscape:window-width="1920"
     inkscape:window-height="1164"
     inkscape:window-x="-11"
     inkscape:window-y="-11"
     inkscape:window-maximized="1"
     inkscape:blackoutopacity="0.0"
     showborder="true"
     inkscape:showpageshadow="true"
     borderlayer="false"
     inkscape:deskcolor="#d1d1d1" />
  <inkscape:_templateinfo
     id="_templateinfo10">
    <inkscape:_name
       id="_name12">Seamless Pattern</inkscape:_name>
    <inkscape:_shortdesc
       id="_shortdesc14">Seamless Pattern</inkscape:_shortdesc>
    <inkscape:_keywords
       id="_keywords16">Seamless Pattern</inkscape:_keywords>
  </inkscape:_templateinfo>
  <polygon
     style="fill:#e21b1b"
     points="78.48,498.812 67.04,463.556 97.008,441.78 59.968,441.78 48.512,406.54 37.056,441.78 0,441.78 29.984,463.556 18.528,498.812 48.512,477.02 "
     id="polygon1"
     transform="matrix(1.5625,0,0,1.5625,0,-632.30625)" />
  <polygon
     style="fill:#e21b1b"
     points="103.736,441.78 133.728,463.556 122.272,498.812 152.256,477.02 182.24,498.812 170.784,463.556 200.768,441.78 163.712,441.78 152.256,406.54 140.8,441.78 "
     id="polygon2"
     transform="matrix(1.5625,0,0,1.5625,0,-632.30625)" />
  <polygon
     style="fill:#e21b1b"
     points="207.48,441.78 237.464,463.556 226.008,498.812 256,477.02 285.984,498.812 274.528,463.556 304.512,441.78 267.456,441.78 256,406.54 244.544,441.78 "
     id="polygon3"
     transform="matrix(1.5625,0,0,1.5625,0,-632.30625)" />
  <polygon
     style="fill:#212529;fill-opacity:1"
     points="329.752,498.812 359.736,477.02 389.728,498.812 378.272,463.556 408.256,441.78 371.192,441.78 359.736,406.54 348.28,441.78 311.224,441.78 341.208,463.556 "
     id="polygon4"
     transform="matrix(1.5625,0,0,1.5625,162.075,-632.30625)" />
  <polygon
     style="fill:url(#linearGradient748);fill-opacity:1"
     points="493.464,498.812 482.008,463.556 512,441.78 474.936,441.78 463.48,406.54 452.024,441.78 414.984,441.78 444.952,463.556 433.496,498.812 463.48,477.02 "
     id="use743"
     transform="matrix(1.5625,0,0,1.5625,-162.125,-632.30625)" />
</svg>
